<svg width="54" height="53" viewBox="0 0 54 53" fill="none" xmlns="http://www.w3.org/2000/svg">
<rect x="0.703125" y="0.0947266" width="53.2163" height="52.625" rx="17.5417" fill="#BBB809"/>
<path fill-rule="evenodd" clip-rule="evenodd" d="M27.536 27.2331H27.5749C31.1418 27.2331 34.0422 24.3327 34.0422 20.7659C34.0422 17.199 31.1418 14.2974 27.5749 14.2974C24.0069 14.2974 21.1052 17.1991 21.1052 20.7622C21.0931 24.3193 23.9765 27.2222 27.536 27.2331ZM22.8448 20.7659C22.8448 18.1578 24.9668 16.0369 27.5749 16.0369C30.1818 16.0369 32.3027 18.1578 32.3027 20.7659C32.3027 23.3727 30.1818 25.4948 27.5749 25.4948H27.5396C24.9425 25.4851 22.8363 23.3654 22.8448 20.7659Z" fill="black"/>
<path fill-rule="evenodd" clip-rule="evenodd" d="M17.9258 33.9993C17.9258 38.5029 25.1885 38.5029 27.5749 38.5029C31.7155 38.5029 37.2216 38.0387 37.2216 34.0236C37.2216 29.5201 29.9613 29.5201 27.5749 29.5201C23.4331 29.5201 17.9258 29.9842 17.9258 33.9993ZM19.753 33.9993C19.753 32.239 22.3843 31.3473 27.5749 31.3473C32.7643 31.3473 35.3944 32.2475 35.3944 34.0236C35.3944 35.7839 32.7643 36.6756 27.5749 36.6756C22.3843 36.6756 19.753 35.7754 19.753 33.9993Z" fill="black"/>
</svg>
