<svg width="54" height="53" viewBox="0 0 54 53" fill="none" xmlns="http://www.w3.org/2000/svg">
<rect x="0.421875" y="0.487793" width="52.625" height="52.0403" rx="17.5417" fill="#FFC65B"/>
<path fill-rule="evenodd" clip-rule="evenodd" d="M21.2547 32.4869C21.062 32.4869 20.868 32.4254 20.7042 32.3001C20.3091 31.9954 20.2344 31.428 20.5392 31.0329L24.1446 26.3468C24.2916 26.1553 24.5096 26.0312 24.7482 26.0011C24.9915 25.9698 25.23 26.0372 25.4192 26.1878L28.8162 28.8561L31.7881 25.0217C32.094 24.6254 32.6602 24.5519 33.0553 24.8603C33.4505 25.1663 33.5227 25.7337 33.2168 26.1276L29.6872 30.6811C29.5402 30.8714 29.3234 30.9955 29.0849 31.0244C28.8439 31.057 28.6054 30.9871 28.4151 30.8389L25.0204 28.1718L21.9715 32.1339C21.7932 32.3652 21.5258 32.4869 21.2547 32.4869Z" fill="#0B0D1E"/>
<mask id="mask0_37_2801" style="mask-type:alpha" maskUnits="userSpaceOnUse" x="33" y="15" width="7" height="8">
<path fill-rule="evenodd" clip-rule="evenodd" d="M33.3945 15.6182H39.8321V22.0568H33.3945V15.6182Z" fill="white"/>
</mask>
<g mask="url(#mask0_37_2801)">
<path fill-rule="evenodd" clip-rule="evenodd" d="M36.6138 17.4243C35.8356 17.4243 35.202 18.0568 35.202 18.8362C35.202 19.6144 35.8356 20.2492 36.6138 20.2492C37.392 20.2492 38.0257 19.6144 38.0257 18.8362C38.0257 18.0568 37.392 17.4243 36.6138 17.4243ZM36.6133 22.0565C34.8389 22.0565 33.3945 20.6121 33.3945 18.8365C33.3945 17.0608 34.8389 15.6177 36.6133 15.6177C38.389 15.6177 39.8321 17.0608 39.8321 18.8365C39.8321 20.6121 38.389 22.0565 36.6133 22.0565Z" fill="#0B0D1E"/>
</g>
<mask id="mask1_37_2801" style="mask-type:alpha" maskUnits="userSpaceOnUse" x="14" y="16" width="25" height="25">
<path fill-rule="evenodd" clip-rule="evenodd" d="M14.9707 16.6323H38.8971V40.5576H14.9707V16.6323Z" fill="white"/>
</mask>
<g mask="url(#mask1_37_2801)">
<path fill-rule="evenodd" clip-rule="evenodd" d="M32.1163 40.5576H21.7516C17.6956 40.5576 14.9707 37.7087 14.9707 33.4683V23.7325C14.9707 19.4861 17.6956 16.6323 21.7516 16.6323H30.5069C31.0056 16.6323 31.4104 17.0371 31.4104 17.5358C31.4104 18.0345 31.0056 18.4393 30.5069 18.4393H21.7516C18.7304 18.4393 16.7777 20.5161 16.7777 23.7325V33.4683C16.7777 36.7269 18.6834 38.7507 21.7516 38.7507H32.1163C35.1375 38.7507 37.0902 36.6775 37.0902 33.4683V24.9889C37.0902 24.4902 37.495 24.0854 37.9937 24.0854C38.4924 24.0854 38.8972 24.4902 38.8972 24.9889V33.4683C38.8972 37.7087 36.1723 40.5576 32.1163 40.5576Z" fill="#0B0D1E"/>
</g>
</svg>
