<svg width="53" height="53" viewBox="0 0 53 53" fill="none" xmlns="http://www.w3.org/2000/svg">
<rect x="0.308594" y="0.487305" width="52.625" height="52.0403" rx="17.5417" fill="#BBB809"/>
<path fill-rule="evenodd" clip-rule="evenodd" d="M32.4174 38.9985H21.7877C17.6425 38.9985 14.8574 36.0893 14.8574 31.7599V21.7445C14.8574 17.4151 17.6425 14.5059 21.7877 14.5059H26.2918C26.7906 14.5059 27.1953 14.9106 27.1953 15.4093C27.1953 15.9081 26.7906 16.3128 26.2918 16.3128H21.7877C18.6749 16.3128 16.6644 18.445 16.6644 21.7445V31.7599C16.6644 35.0594 18.6749 37.1916 21.7877 37.1916H32.4174C35.5302 37.1916 37.5419 35.0594 37.5419 31.7599V26.9076C37.5419 26.4089 37.9467 26.0041 38.4454 26.0041C38.9441 26.0041 39.3489 26.4089 39.3489 26.9076V31.7599C39.3489 36.0893 36.5626 38.9985 32.4174 38.9985Z" fill="#0B0D1E"/>
<path fill-rule="evenodd" clip-rule="evenodd" d="M23.1301 30.6386H26.7163C27.1741 30.6386 27.6029 30.4616 27.927 30.1375L36.9726 21.0919C37.3436 20.7209 37.5484 20.227 37.5484 19.7017C37.5484 19.1753 37.3436 18.6802 36.9726 18.3092L35.5066 16.8431C34.7392 16.0782 33.4912 16.0782 32.7226 16.8431L23.7204 25.8454C23.4084 26.1574 23.2313 26.5718 23.2205 27.0115L23.1301 30.6386ZM26.7171 32.4452H22.2045C21.9612 32.4452 21.7275 32.3464 21.5576 32.1718C21.3878 31.9983 21.295 31.7634 21.3011 31.5189L21.4143 26.9665C21.4372 26.0606 21.8022 25.209 22.4431 24.5669H22.4443L31.4465 15.5646C32.9186 14.095 35.3122 14.095 36.7843 15.5646L38.2503 17.0307C38.9647 17.7438 39.3574 18.6919 39.3562 19.7014C39.3562 20.7109 38.9634 21.6577 38.2503 22.3696L29.2047 31.4153C28.5409 32.079 27.6567 32.4452 26.7171 32.4452Z" fill="#0B0D1E"/>
<path fill-rule="evenodd" clip-rule="evenodd" d="M36.218 23.9987C35.9867 23.9987 35.7554 23.9107 35.5795 23.7336L30.0792 18.2333C29.7262 17.8803 29.7262 17.3081 30.0792 16.9551C30.4321 16.6022 31.0031 16.6022 31.3561 16.9551L36.8565 22.4567C37.2094 22.8097 37.2094 23.3807 36.8565 23.7336C36.6806 23.9107 36.4493 23.9987 36.218 23.9987Z" fill="#0B0D1E"/>
</svg>
