<svg width="54" height="53" viewBox="0 0 54 53" fill="none" xmlns="http://www.w3.org/2000/svg">
<rect x="0.8125" y="0.293457" width="52.625" height="52.0403" rx="17.5417" fill="#D0DCDC"/>
<path fill-rule="evenodd" clip-rule="evenodd" d="M20.4814 16.0739C17.1686 16.0739 17.1686 16.3245 17.1686 19.3867V19.4168C17.1686 20.7503 17.1686 21.714 17.4951 22.1212C17.8143 22.5163 18.7623 22.6994 20.4814 22.6994C22.2004 22.6994 23.1484 22.5151 23.4676 22.12C23.7941 21.714 23.7941 20.7503 23.7941 19.4156C23.7941 16.3245 23.7941 16.0739 20.4814 16.0739ZM20.481 24.5065C18.45 24.5065 16.9262 24.2933 16.0889 23.2537C15.3613 22.3514 15.3613 21.1203 15.3613 19.4169L16.2648 19.3868H15.3613C15.3613 15.9295 15.5794 14.2671 20.481 14.2671C25.3827 14.2671 25.6007 15.9295 25.6007 19.3868C25.6007 21.1191 25.6007 22.3514 24.8731 23.2537C24.0359 24.2933 22.5121 24.5065 20.481 24.5065Z" fill="#0B0D1E"/>
<path fill-rule="evenodd" clip-rule="evenodd" d="M33.7333 16.0739C30.4206 16.0739 30.4206 16.3245 30.4206 19.3867V19.4168C30.4206 20.7503 30.4206 21.714 30.747 22.1212C31.0662 22.5163 32.0143 22.6994 33.7333 22.6994C35.4523 22.6994 36.4004 22.5151 36.7196 22.12C37.0461 21.714 37.0461 20.7503 37.0461 19.4156C37.0461 16.3245 37.0461 16.0739 33.7333 16.0739ZM33.733 24.5065C31.702 24.5065 30.1781 24.2933 29.3409 23.2537C28.6133 22.3514 28.6133 21.1203 28.6133 19.4169L29.5168 19.3868H28.6133C28.6133 15.9295 28.8313 14.2671 33.733 14.2671C38.6347 14.2671 38.8527 15.9295 38.8527 19.3868C38.8527 21.1191 38.8527 22.3514 38.1251 23.2537C37.2879 24.2933 35.764 24.5065 33.733 24.5065Z" fill="#0B0D1E"/>
<path fill-rule="evenodd" clip-rule="evenodd" d="M20.4814 29.3249C17.1686 29.3249 17.1686 29.5755 17.1686 32.6377V32.6678C17.1686 34.0013 17.1686 34.965 17.4951 35.3722C17.8143 35.7673 18.7623 35.9504 20.4814 35.9504C22.2004 35.9504 23.1484 35.7661 23.4676 35.371C23.7941 34.965 23.7941 34.0013 23.7941 32.6666C23.7941 29.5755 23.7941 29.3249 20.4814 29.3249ZM20.481 37.7575C18.45 37.7575 16.9262 37.5443 16.0889 36.5047C15.3613 35.6024 15.3613 34.3712 15.3613 32.6679L16.2648 32.6378H15.3613C15.3613 29.1805 15.5794 27.5181 20.481 27.5181C25.3827 27.5181 25.6007 29.1805 25.6007 32.6378C25.6007 34.37 25.6007 35.6024 24.8731 36.5047C24.0359 37.5443 22.5121 37.7575 20.481 37.7575Z" fill="#0B0D1E"/>
<path fill-rule="evenodd" clip-rule="evenodd" d="M33.7333 29.3249C30.4206 29.3249 30.4206 29.5755 30.4206 32.6377V32.6678C30.4206 34.0013 30.4206 34.965 30.747 35.3722C31.0662 35.7673 32.0143 35.9504 33.7333 35.9504C35.4523 35.9504 36.4004 35.7661 36.7196 35.371C37.0461 34.965 37.0461 34.0013 37.0461 32.6666C37.0461 29.5755 37.0461 29.3249 33.7333 29.3249ZM33.733 37.7575C31.702 37.7575 30.1781 37.5443 29.3409 36.5047C28.6133 35.6024 28.6133 34.3712 28.6133 32.6679L29.5168 32.6378H28.6133C28.6133 29.1805 28.8313 27.5181 33.733 27.5181C38.6347 27.5181 38.8527 29.1805 38.8527 32.6378C38.8527 34.37 38.8527 35.6024 38.1251 36.5047C37.2879 37.5443 35.764 37.7575 33.733 37.7575Z" fill="#0B0D1E"/>
</svg>
