<svg width="54" height="53" viewBox="0 0 54 53" fill="none" xmlns="http://www.w3.org/2000/svg">
<rect x="0.421875" y="0.730957" width="52.625" height="52.0403" rx="17.5417" fill="#6D9BF5"/>
<path fill-rule="evenodd" clip-rule="evenodd" d="M26.8495 28.1217H26.882C29.9177 28.1217 32.386 25.6522 32.386 22.6178C32.386 19.5833 29.9177 17.1138 26.882 17.1138C23.8476 17.1138 21.3792 19.5833 21.3792 22.6141C21.3732 24.0802 21.9382 25.4607 22.9718 26.5003C24.0029 27.5411 25.3798 28.1169 26.8495 28.1217ZM23.1862 22.6178C23.1862 20.5795 24.8438 18.9207 26.882 18.9207C28.9203 18.9207 30.5791 20.5795 30.5791 22.6178C30.5791 24.6572 28.9203 26.3148 26.882 26.3148H26.8519C25.8689 26.3112 24.9462 25.9245 24.2535 25.227C23.5608 24.5295 23.1826 23.6056 23.1862 22.6178Z" fill="#0B0D1E"/>
<path d="M33.2161 26.1492C33.2799 26.6009 33.6666 26.9274 34.1099 26.9274C34.1509 26.9274 34.193 26.9249 34.2352 26.9189C36.3734 26.619 37.9889 24.7638 37.9937 22.6015C37.9937 20.4536 36.4554 18.6419 34.3376 18.2937C33.8425 18.2154 33.3811 18.5455 33.2992 19.0382C33.2185 19.5309 33.5522 19.9959 34.0437 20.0766C35.2857 20.2802 36.1867 21.3427 36.1867 22.5991C36.1843 23.8664 35.2387 24.953 33.9859 25.1288C33.4907 25.1975 33.1474 25.6541 33.2161 26.1492Z" fill="#0B0D1E"/>
<path d="M36.8488 34.0367C36.9861 34.3969 37.3294 34.6185 37.6932 34.6185C37.8004 34.6185 37.9089 34.5993 38.0149 34.5595C39.7375 33.903 39.9953 32.7068 39.9953 32.0515C39.9953 30.9781 39.3821 29.6072 36.4633 29.17C35.9658 29.1061 35.508 29.435 35.4345 29.9289C35.3611 30.424 35.702 30.883 36.1947 30.9576C37.5174 31.1552 38.1883 31.5238 38.1883 32.0515C38.1883 32.2165 38.1883 32.5598 37.3716 32.8706C36.9054 33.0477 36.6705 33.5705 36.8488 34.0367Z" fill="#0B0D1E"/>
<path fill-rule="evenodd" clip-rule="evenodd" d="M26.882 37.3408C24.8835 37.3408 18.8001 37.3408 18.8001 33.4919C18.8001 29.6588 24.8835 29.6588 26.882 29.6588C28.8805 29.6588 34.9627 29.6588 34.9627 33.5124C34.9627 37.3408 29.0925 37.3408 26.882 37.3408ZM26.882 31.4657C24.0198 31.4657 20.607 31.8175 20.607 33.4919C20.607 35.1796 24.0198 35.5338 26.882 35.5338C29.7442 35.5338 33.1557 35.1833 33.1557 33.5124C33.1557 31.8211 29.7442 31.4657 26.882 31.4657Z" fill="#0B0D1E"/>
<path d="M19.653 26.9273C19.612 26.9273 19.5698 26.9249 19.5277 26.9189C17.3894 26.6189 15.7752 24.7638 15.7704 22.6038C15.7704 20.4536 17.3087 18.6418 19.4265 18.2937C19.9336 18.2141 20.383 18.5478 20.4649 19.0381C20.5456 19.5308 20.2119 19.9958 19.7204 20.0765C18.4784 20.2801 17.5774 21.3426 17.5774 22.6014C17.5798 23.8663 18.5254 24.9541 19.777 25.1288C20.2721 25.1974 20.6155 25.654 20.5468 26.1491C20.4829 26.6008 20.0963 26.9273 19.653 26.9273Z" fill="#0B0D1E"/>
<path d="M15.7492 34.5596C15.8552 34.5993 15.9636 34.6186 16.0708 34.6186C16.4346 34.6186 16.778 34.3969 16.9153 34.0367C17.0936 33.5705 16.8587 33.0477 16.3925 32.8707C15.5745 32.5587 15.5745 32.2165 15.5745 32.0515C15.5745 31.5239 16.2455 31.1552 17.5682 30.9577C18.0609 30.883 18.4018 30.424 18.3283 29.9289C18.2536 29.435 17.7983 29.1074 17.3008 29.17C14.3807 29.6073 13.7676 30.9794 13.7676 32.0515C13.7676 32.7056 14.0254 33.9018 15.7492 34.5596Z" fill="#0B0D1E"/>
</svg>
