<svg width="223" height="30" viewBox="0 0 223 30" fill="none" xmlns="http://www.w3.org/2000/svg">
<path d="M53.7459 29.7812C55.9986 29.7812 59.1294 29.4376 62.2984 28.1394C62.5657 28.0249 62.7184 27.7576 62.7184 27.4903L62.6421 21.5341C62.6421 21.0759 62.1839 20.8468 61.7639 21.0377C59.2439 22.1832 56.4949 22.9086 53.7459 22.9086C48.4005 22.9086 45.4224 20.3505 45.4224 15.7687C45.4224 11.1107 48.4005 8.70524 53.7459 8.70524C56.4949 8.70524 59.3967 9.23978 61.7639 10.5379C62.1839 10.767 62.6421 10.5379 62.6421 10.0798V4.16169C62.6421 3.85624 62.413 3.62715 62.1457 3.51261C59.4349 2.25263 55.9986 1.83264 53.7459 1.83264C44.0479 1.83264 38.168 7.25436 38.168 15.7687C38.168 24.2068 44.0479 29.7812 53.7459 29.7812Z" fill="#0B0D1E"/>
<path d="M66.8954 29.1703H72.6226C73.0425 29.1703 73.3862 28.8267 73.3862 28.4067V18.8996H84.8023V28.4067C84.8023 28.8267 85.146 29.1703 85.5659 29.1703H91.2931C91.7131 29.1703 92.0567 28.8267 92.0567 28.4067V3.20716C92.0567 2.78717 91.7131 2.44354 91.2931 2.44354H85.5659C85.146 2.44354 84.8023 2.78717 84.8023 3.20716V12.027H73.3862V3.20716C73.3862 2.78717 73.0425 2.44354 72.6226 2.44354H66.8954C66.4754 2.44354 66.1318 2.78717 66.1318 3.20716V28.4067C66.1318 28.8267 66.4754 29.1703 66.8954 29.1703Z" fill="#0B0D1E"/>
<path d="M94.8732 29.1703H101.097C101.364 29.1703 101.669 29.0176 101.784 28.7121L103.655 23.9013H115.567L117.438 28.7121C117.553 29.0176 117.858 29.1703 118.125 29.1703H124.349C124.998 29.1703 125.418 28.5976 125.189 27.9485L115.529 2.90171C115.415 2.59626 115.109 2.44354 114.842 2.44354H104.38C104.113 2.44354 103.808 2.59626 103.693 2.90171L94.0332 27.9485C93.8041 28.5594 94.2241 29.1703 94.8732 29.1703ZM106.366 17.0287L109.611 8.47615L112.856 17.0287H106.366Z" fill="#0B0D1E"/>
<path d="M151.395 29.5139C152.044 29.5139 152.54 29.3994 152.54 28.4067V23.405C152.54 22.8323 152.387 22.6795 151.776 22.6032C150.364 22.4504 149.867 20.3505 148.684 18.3269C150.478 16.6469 151.509 14.356 151.509 11.7215C151.509 6.45255 147.386 2.44354 141.086 2.44354H127.531C127.302 2.44354 127.15 2.59626 127.15 2.82535V28.7885C127.15 29.0176 127.302 29.1703 127.531 29.1703H134.022C134.251 29.1703 134.404 29.0176 134.404 28.7885V20.9996H139.94C144.598 20.9996 141.849 29.5139 151.395 29.5139ZM134.404 14.127V9.31614H141.086C142.995 9.31614 144.255 10.0416 144.255 11.7215C144.255 13.4015 142.995 14.127 141.086 14.127H134.404Z" fill="#0B0D1E"/>
<path d="M156.316 29.1703H162.043C162.463 29.1703 162.806 28.8267 162.806 28.4067V12.0652L169.603 28.7503C169.679 28.9794 169.984 29.1703 170.252 29.1703H174.375C174.642 29.1703 174.948 28.9794 175.024 28.7503L181.821 12.0652V28.4067C181.821 28.8267 182.164 29.1703 182.584 29.1703H188.311C188.731 29.1703 189.075 28.8267 189.075 28.4067V3.20716C189.075 2.78717 188.731 2.44354 188.311 2.44354H178.499C178.232 2.44354 177.926 2.59626 177.812 2.90171L172.313 18.0978L166.815 2.90171C166.701 2.59626 166.395 2.44354 166.128 2.44354H156.316C155.896 2.44354 155.552 2.78717 155.552 3.20716V28.4067C155.552 28.8267 155.896 29.1703 156.316 29.1703Z" fill="#0B0D1E"/>
<path d="M191.862 29.1703H198.086C198.353 29.1703 198.659 29.0176 198.773 28.7121L200.644 23.9013H212.557L214.427 28.7121C214.542 29.0176 214.847 29.1703 215.115 29.1703H221.338C221.987 29.1703 222.407 28.5976 222.178 27.9485L212.518 2.90171C212.404 2.59626 212.098 2.44354 211.831 2.44354H201.37C201.102 2.44354 200.797 2.59626 200.682 2.90171L191.022 27.9485C190.793 28.5594 191.213 29.1703 191.862 29.1703ZM203.355 17.0287L206.6 8.47615L209.846 17.0287H203.355Z" fill="#0B0D1E"/>
<path fill-rule="evenodd" clip-rule="evenodd" d="M1.80917 0.190308C1.36012 0.190308 0.996094 0.554335 0.996094 1.00338V28.7907C0.996094 29.2397 1.36012 29.6038 1.80917 29.6038H29.5965C30.0455 29.6038 30.4096 29.2397 30.4096 28.7907V1.00338C30.4096 0.554334 30.0455 0.190308 29.5965 0.190308H1.80917ZM14.3789 25.1656C14.7263 26.5406 16.6799 26.5406 17.0273 25.1656L17.9584 21.4808C18.167 20.6555 19.0714 20.22 19.8466 20.5715L23.3081 22.141C24.5997 22.7266 25.8177 21.1993 24.9593 20.0704L22.659 17.0449C22.1438 16.3673 22.3671 15.3887 23.1253 15.0017L26.5106 13.274C27.7737 12.6293 27.339 10.7248 25.9212 10.692L22.1216 10.6042C21.2706 10.5845 20.6447 9.79969 20.8149 8.96566L21.5748 5.24175C21.8583 3.85222 20.0983 3.00461 19.1887 4.09265L16.751 7.00857C16.205 7.66164 15.2012 7.66164 14.6552 7.00857L12.2175 4.09265C11.3079 3.00461 9.54787 3.85221 9.83141 5.24174L10.5913 8.96566C10.7615 9.79968 10.1356 10.5845 9.28461 10.6042L5.48497 10.692C4.06719 10.7248 3.63248 12.6293 4.89565 13.274L8.2809 15.0017C9.03908 15.3887 9.26245 16.3673 8.74725 17.0449L6.44687 20.0704C5.58852 21.1993 6.80652 22.7266 8.09812 22.141L11.5596 20.5715C12.3348 20.22 13.2393 20.6555 13.4478 21.4808L14.3789 25.1656Z" fill="#0B0D1E"/>
</svg>
