<svg width="214" height="30" viewBox="0 0 214 30" fill="none" xmlns="http://www.w3.org/2000/svg">
<path d="M50.8268 29.1124C52.9969 29.1124 56.0129 28.7813 59.0657 27.5308C59.3231 27.4205 59.4702 27.163 59.4702 26.9055L59.3967 21.1678C59.3967 20.7264 58.9553 20.5057 58.5507 20.6896C56.1232 21.793 53.475 22.4919 50.8268 22.4919C45.6775 22.4919 42.8086 20.0276 42.8086 15.6139C42.8086 11.1267 45.6775 8.80948 50.8268 8.80948C53.475 8.80948 56.2703 9.3244 58.5507 10.5749C58.9553 10.7956 59.3967 10.5749 59.3967 10.1336V4.43258C59.3967 4.13834 59.176 3.91765 58.9185 3.80731C56.3071 2.59355 52.9969 2.18896 50.8268 2.18896C41.4845 2.18896 35.8203 7.41181 35.8203 15.6139C35.8203 23.7424 41.4845 29.1124 50.8268 29.1124Z" fill="#0B0D1E"/>
<path d="M63.494 28.5239H69.0111C69.4157 28.5239 69.7467 28.1929 69.7467 27.7883V18.6299H80.7441V27.7883C80.7441 28.1929 81.0751 28.5239 81.4797 28.5239H86.9968C87.4014 28.5239 87.7324 28.1929 87.7324 27.7883V3.51307C87.7324 3.10848 87.4014 2.77745 86.9968 2.77745H81.4797C81.0751 2.77745 80.7441 3.10848 80.7441 3.51307V12.0094H69.7467V3.51307C69.7467 3.10848 69.4157 2.77745 69.0111 2.77745H63.494C63.0894 2.77745 62.7584 3.10848 62.7584 3.51307V27.7883C62.7584 28.1929 63.0894 28.5239 63.494 28.5239Z" fill="#0B0D1E"/>
<path d="M90.4456 28.5239H96.4408C96.6983 28.5239 96.9925 28.3768 97.1028 28.0825L98.9051 23.4482H110.381L112.183 28.0825C112.293 28.3768 112.587 28.5239 112.845 28.5239H118.84C119.465 28.5239 119.87 27.9722 119.649 27.3469L110.344 3.21882C110.234 2.92458 109.939 2.77745 109.682 2.77745H99.6039C99.3465 2.77745 99.0522 2.92458 98.9419 3.21882L89.6364 27.3469C89.4157 27.9354 89.8203 28.5239 90.4456 28.5239ZM101.517 16.8276L104.643 8.58879L107.769 16.8276H101.517Z" fill="#0B0D1E"/>
<path d="M144.894 28.8549C145.519 28.8549 145.997 28.7446 145.997 27.7883V22.97C145.997 22.4183 145.85 22.2712 145.262 22.1976C143.901 22.0505 143.423 20.0276 142.282 18.0782C144.011 16.4598 145.004 14.253 145.004 11.7151C145.004 6.63942 141.032 2.77745 134.963 2.77745H121.906C121.685 2.77745 121.538 2.92458 121.538 3.14526V28.1561C121.538 28.3768 121.685 28.5239 121.906 28.5239H128.159C128.379 28.5239 128.526 28.3768 128.526 28.1561V20.6528H133.86C138.347 20.6528 135.699 28.8549 144.894 28.8549ZM128.526 14.0323V9.39796H134.963C136.802 9.39796 138.016 10.0968 138.016 11.7151C138.016 13.3335 136.802 14.0323 134.963 14.0323H128.526Z" fill="#0B0D1E"/>
<path d="M149.634 28.5239H155.151C155.556 28.5239 155.887 28.1929 155.887 27.7883V12.0462L162.434 28.1193C162.507 28.34 162.802 28.5239 163.059 28.5239H167.031C167.289 28.5239 167.583 28.34 167.657 28.1193L174.204 12.0462V27.7883C174.204 28.1929 174.535 28.5239 174.939 28.5239H180.456C180.861 28.5239 181.192 28.1929 181.192 27.7883V3.51307C181.192 3.10848 180.861 2.77745 180.456 2.77745H171.004C170.746 2.77745 170.452 2.92458 170.342 3.21882L165.045 17.8575L159.749 3.21882C159.639 2.92458 159.344 2.77745 159.087 2.77745H149.634C149.23 2.77745 148.899 3.10848 148.899 3.51307V27.7883C148.899 28.1929 149.23 28.5239 149.634 28.5239Z" fill="#0B0D1E"/>
<path d="M183.877 28.5239H189.872C190.13 28.5239 190.424 28.3768 190.535 28.0825L192.337 23.4482H203.812L205.615 28.0825C205.725 28.3768 206.019 28.5239 206.277 28.5239H212.272C212.897 28.5239 213.302 27.9722 213.081 27.3469L203.776 3.21882C203.665 2.92458 203.371 2.77745 203.113 2.77745H193.036C192.778 2.77745 192.484 2.92458 192.374 3.21882L183.068 27.3469C182.847 27.9354 183.252 28.5239 183.877 28.5239ZM194.948 16.8276L198.075 8.58879L201.201 16.8276H194.948Z" fill="#0B0D1E"/>
<path fill-rule="evenodd" clip-rule="evenodd" d="M0.962585 0.606934C0.437436 0.606934 0.0117188 1.03265 0.0117188 1.5578V27.9906C0.0117188 28.5158 0.437438 28.9415 0.962587 28.9415H27.3954C27.9206 28.9415 28.3463 28.5158 28.3463 27.9906V1.5578C28.3463 1.03265 27.9206 0.606934 27.3954 0.606934H0.962585ZM12.9024 24.6661C13.2371 25.9906 15.1189 25.9906 15.4536 24.6661L16.3506 21.1164C16.5515 20.3214 17.4227 19.9019 18.1695 20.2405L21.504 21.7524C22.7482 22.3165 23.9216 20.8452 23.0947 19.7577L20.8787 16.8433C20.3824 16.1906 20.5976 15.2478 21.3279 14.875L24.589 13.2107C25.8059 12.5896 25.3871 10.755 24.0213 10.7234L20.3611 10.6388C19.5413 10.6198 18.9384 9.8638 19.1023 9.06036L19.8343 5.47304C20.1075 4.13448 18.4119 3.31797 17.5357 4.36609L15.1874 7.17506C14.6615 7.80417 13.6945 7.80417 13.1685 7.17506L10.8203 4.3661C9.94404 3.31797 8.24853 4.13448 8.52167 5.47304L9.25368 9.06036C9.41762 9.8638 8.8147 10.6198 7.99493 10.6388L4.33466 10.7234C2.96888 10.755 2.55012 12.5896 3.76695 13.2107L7.02803 14.875C7.7584 15.2478 7.97358 16.1906 7.47727 16.8433L5.26128 19.7577C4.43441 20.8452 5.60773 22.3165 6.85196 21.7524L10.1864 20.2405C10.9333 19.9019 11.8045 20.3214 12.0054 21.1164L12.9024 24.6661Z" fill="#BBB809"/>
</svg>
