<svg width="54" height="54" viewBox="0 0 54 54" fill="none" xmlns="http://www.w3.org/2000/svg">
<rect x="0.0078125" y="0.90918" width="53.2163" height="52.625" rx="17.5417" fill="#6D9BF5"/>
<mask id="mask0_37_2846" style="mask-type:alpha" maskUnits="userSpaceOnUse" x="16" y="15" width="21" height="25">
<path fill-rule="evenodd" clip-rule="evenodd" d="M16.0137 15.1255H36.7868V39.3105H16.0137V15.1255Z" fill="white"/>
</mask>
<g mask="url(#mask0_37_2846)">
<path fill-rule="evenodd" clip-rule="evenodd" d="M21.5843 16.9526C19.5658 16.9526 17.8896 18.5874 17.8421 20.6035V33.6318C17.797 35.7185 19.4415 37.4374 21.5075 37.4837H31.3309C33.364 37.3996 34.9744 35.71 34.9598 33.6391V22.8339L29.3136 16.9526H21.5989H21.5843ZM21.5991 39.3111H21.4663C18.3941 39.2416 15.948 36.6859 16.015 33.6125V20.5817C16.0857 17.5594 18.5817 15.1255 21.5821 15.1255H21.6028H29.7036C29.9521 15.1255 30.1897 15.2266 30.3627 15.4057L36.5327 21.834C36.6959 22.0033 36.7873 22.2311 36.7873 22.4662V33.632C36.8092 36.6884 34.4289 39.1856 31.3676 39.3099L21.5991 39.3111Z" fill="black"/>
</g>
<path fill-rule="evenodd" clip-rule="evenodd" d="M35.8667 23.6195H32.5106C30.2814 23.6134 28.4688 21.7959 28.4688 19.5691V16.0254C28.4688 15.5211 28.8781 15.1118 29.3824 15.1118C29.8867 15.1118 30.296 15.5211 30.296 16.0254V19.5691C30.296 20.7922 31.2913 21.7886 32.5131 21.7923H35.8667C36.371 21.7923 36.7803 22.2016 36.7803 22.7059C36.7803 23.2102 36.371 23.6195 35.8667 23.6195Z" fill="black"/>
<path fill-rule="evenodd" clip-rule="evenodd" d="M29.1558 32.298H22.5777C22.0734 32.298 21.6641 31.8887 21.6641 31.3843C21.6641 30.88 22.0734 30.4707 22.5777 30.4707H29.1558C29.6601 30.4707 30.0695 30.88 30.0695 31.3843C30.0695 31.8887 29.6601 32.298 29.1558 32.298Z" fill="black"/>
<path fill-rule="evenodd" clip-rule="evenodd" d="M26.6639 27.7272H22.5757C22.0714 27.7272 21.6621 27.3179 21.6621 26.8135C21.6621 26.3092 22.0714 25.8999 22.5757 25.8999H26.6639C27.1682 25.8999 27.5776 26.3092 27.5776 26.8135C27.5776 27.3179 27.1682 27.7272 26.6639 27.7272Z" fill="black"/>
</svg>
