<svg width="54" height="54" viewBox="0 0 54 54" fill="none" xmlns="http://www.w3.org/2000/svg">
<rect x="0.554688" y="0.90918" width="53.2163" height="52.625" rx="17.5417" fill="#FFA0EA"/>
<mask id="mask0_37_2852" style="mask-type:alpha" maskUnits="userSpaceOnUse" x="30" y="15" width="11" height="11">
<path fill-rule="evenodd" clip-rule="evenodd" d="M30.3926 15.1118H40.7946V25.5063H30.3926V15.1118Z" fill="white"/>
</mask>
<g mask="url(#mask0_37_2852)">
<path fill-rule="evenodd" clip-rule="evenodd" d="M39.8806 25.5063C39.4213 25.5063 39.0266 25.1615 38.9742 24.695C38.5125 20.5824 35.3185 17.3908 31.2047 16.934C30.7041 16.8779 30.3423 16.4272 30.3983 15.9253C30.4531 15.4247 30.9002 15.0556 31.4069 15.1189C36.3747 15.6707 40.2326 19.5238 40.7893 24.4903C40.8453 24.9922 40.4848 25.4441 39.9841 25.5002C39.95 25.5038 39.9147 25.5063 39.8806 25.5063Z" fill="black"/>
</g>
<path fill-rule="evenodd" clip-rule="evenodd" d="M35.5685 25.5193C35.1397 25.5193 34.7584 25.2172 34.6732 24.7811C34.3223 22.9782 32.9324 21.5883 31.1319 21.2387C30.6361 21.1424 30.3133 20.6637 30.4095 20.1679C30.5058 19.6721 30.9931 19.3481 31.4803 19.4455C34.0153 19.9377 35.9729 21.8941 36.4663 24.4303C36.5625 24.9273 36.2397 25.406 35.7451 25.5023C35.6855 25.5132 35.627 25.5193 35.5685 25.5193Z" fill="black"/>
<path fill-rule="evenodd" clip-rule="evenodd" d="M16.9117 17.6552L17.0001 17.5628C19.348 15.2147 20.877 14.5923 22.5084 15.5304C22.9777 15.8003 23.4176 16.178 24.0158 16.7856L25.8509 18.6884C26.8644 19.7944 27.0948 20.8552 26.7648 22.0976L26.7193 22.2621L26.6689 22.4256L26.4236 23.1454C25.8985 24.7594 26.1177 25.6701 27.9858 27.5376C29.9284 29.4798 30.8352 29.6386 32.5737 29.0311L32.8836 28.9234L33.2583 28.8017L33.4223 28.7562C34.7428 28.4039 35.8583 28.6851 37.0413 29.8673L38.5199 31.2955L38.9551 31.7235C39.4376 32.2156 39.7566 32.6055 39.9921 33.0176C40.9244 34.6485 40.3013 36.1766 37.8857 38.5832L37.6559 38.8161C37.2952 39.1637 36.9582 39.4127 36.4632 39.6477C35.6323 40.0423 34.6506 40.191 33.5099 40.0324C30.699 39.6415 27.1339 37.4236 22.6166 32.9074C22.2489 32.5398 21.8967 32.1793 21.5597 31.8257L20.9058 31.1279C14.7785 24.4708 14.238 20.3815 16.749 17.8168L16.9117 17.6552ZM22.5365 17.8903C22.1397 17.4991 21.8514 17.2605 21.5972 17.1144C21.035 16.7911 20.428 16.9277 19.3046 17.8946L18.9516 18.21C18.89 18.2668 18.827 18.3258 18.7626 18.387L18.3578 18.7813L18.3214 18.8269L18.0469 19.1025C17.3838 19.7799 17.0697 20.6065 17.3404 22.0281C17.7846 24.361 19.8176 27.5256 23.9082 31.6152C28.1704 35.8763 31.4179 37.8966 33.7612 38.2225C35.1273 38.4125 35.8241 38.0816 36.5347 37.3536L37.0766 36.8068C37.3307 36.5409 37.5478 36.2998 37.7312 36.0797L37.9813 35.7646C38.6204 34.9132 38.6788 34.4025 38.4054 33.9243C38.3014 33.7424 38.1502 33.5429 37.9299 33.2991L37.6312 32.9836L37.4544 32.8067L35.5891 31.0055C34.9657 30.4307 34.5398 30.3491 33.893 30.5217L33.7063 30.5754L32.9336 30.8377C30.692 31.5616 29.0749 31.2106 26.6936 28.8298C24.2272 26.3641 23.938 24.7175 24.7643 22.3467L24.8173 22.1944L24.9639 21.7527L25.036 21.4711C25.1638 20.8584 25.0179 20.4312 24.3593 19.7725C24.3321 19.7454 24.3018 19.7148 24.2688 19.6814L22.5365 17.8903Z" fill="black"/>
</svg>
