<svg width="54" height="54" viewBox="0 0 54 54" fill="none" xmlns="http://www.w3.org/2000/svg">
<rect x="0.261719" y="0.742188" width="53.2163" height="52.625" rx="17.5417" fill="#FFC65B"/>
<mask id="mask0_37_2855" style="mask-type:alpha" maskUnits="userSpaceOnUse" x="15" y="18" width="19" height="20">
<path fill-rule="evenodd" clip-rule="evenodd" d="M15.0488 18.5996H33.9308V37.4829H15.0488V18.5996Z" fill="white"/>
</mask>
<g mask="url(#mask0_37_2855)">
<path fill-rule="evenodd" clip-rule="evenodd" d="M20.953 20.4284C20.4182 20.4284 20.0734 20.4284 20.0137 20.4309C19.1147 20.4686 18.2852 20.8499 17.687 21.5028C17.1291 22.1132 16.8416 22.8928 16.8794 23.7016C16.8794 27.2258 16.8806 32.5151 16.8891 32.805C17.028 34.4922 18.6092 35.7823 20.4194 35.6434C23.7694 35.6483 28.7322 35.6592 28.9649 35.6507C29.8602 35.6142 30.691 35.2341 31.2891 34.5824C31.8483 33.9745 32.1358 33.1949 32.1005 32.3897C32.0992 32.3763 32.0992 32.3629 32.0992 32.3495C32.1005 28.8655 32.1005 23.5798 32.0919 23.296C31.9543 21.6003 30.3658 20.2944 28.5458 20.4369C26.0291 20.4333 22.5951 20.4284 20.953 20.4284ZM20.0995 37.4829C17.5243 37.4841 15.278 35.5107 15.066 32.9221C15.0624 32.8721 15.0502 32.7199 15.0538 23.7432C14.9954 22.4872 15.451 21.2398 16.3402 20.2689C17.2685 19.2554 18.5488 18.6646 19.946 18.6049C20.1153 18.5927 25.9723 18.6073 28.4805 18.6122C31.2214 18.4197 33.6955 20.4541 33.916 23.184C33.9258 23.3168 33.9294 26.3927 33.927 32.3313C33.9781 33.6177 33.5201 34.8565 32.6357 35.8189C31.7062 36.8312 30.4247 37.4196 29.0287 37.4768C28.8582 37.489 22.9988 37.4732 20.4869 37.4683C20.3578 37.4781 20.2286 37.4829 20.0995 37.4829Z" fill="black"/>
</g>
<path fill-rule="evenodd" clip-rule="evenodd" d="M37.9725 34.8611C37.4231 34.8611 36.881 34.6722 36.434 34.3056L32.4371 31.0214C32.0473 30.701 31.9913 30.1248 32.3117 29.735C32.6308 29.3464 33.207 29.2879 33.5968 29.6095L37.5925 32.8937C37.8617 33.113 38.1321 33.0228 38.2369 32.9717C38.3416 32.9229 38.584 32.7707 38.584 32.4247L38.5987 23.4724C38.5999 23.1264 38.3562 22.9741 38.2515 22.9242C38.1479 22.8755 37.8738 22.7841 37.6071 23.0034L33.5956 26.2863C33.2034 26.6067 32.6296 26.5495 32.3105 26.1572C31.9901 25.7674 32.0485 25.1924 32.4384 24.8733L36.4498 21.5891C37.1856 20.9861 38.176 20.8679 39.0348 21.2736C39.8936 21.6817 40.4271 22.5246 40.4259 23.4748L40.4113 32.4272C40.4101 33.3773 39.8753 34.2203 39.0177 34.6247C38.6815 34.7843 38.3258 34.8611 37.9725 34.8611Z" fill="black"/>
</svg>
