<svg width="53" height="53" viewBox="0 0 53 53" fill="none" xmlns="http://www.w3.org/2000/svg">
<rect x="0.308594" y="0.898926" width="52.625" height="52.0403" rx="17.5417" fill="#FFA0EA"/>
<path fill-rule="evenodd" clip-rule="evenodd" d="M26.6046 39.5684C26.1059 39.5684 25.7012 39.1637 25.7012 38.6649V34.8571C25.7012 34.3584 26.1059 33.9536 26.6046 33.9536C27.1034 33.9536 27.5081 34.3584 27.5081 34.8571V38.6649C27.5081 39.1637 27.1034 39.5684 26.6046 39.5684Z" fill="#0B0D1E"/>
<path fill-rule="evenodd" clip-rule="evenodd" d="M26.6056 15.4758C24.406 15.4758 22.6159 17.2755 22.6159 19.4884V25.1358C22.6159 27.3463 24.406 29.1472 26.6056 29.1472C28.8053 29.1472 30.5942 27.3463 30.5942 25.1358V19.4884C30.5942 17.2755 28.8053 15.4758 26.6056 15.4758ZM26.6053 30.9543C23.4094 30.9543 20.8086 28.3438 20.8086 25.1359V19.4885C20.8086 16.2794 23.4094 13.6689 26.6053 13.6689C29.8012 13.6689 32.4008 16.2794 32.4008 19.4885V25.1359C32.4008 28.3438 29.8012 30.9543 26.6053 30.9543Z" fill="#0B0D1E"/>
<path fill-rule="evenodd" clip-rule="evenodd" d="M26.605 35.7603C20.7927 35.7603 16.0645 31.0117 16.0645 25.174C16.0645 24.6753 16.4692 24.2705 16.9679 24.2705C17.4667 24.2705 17.8714 24.6753 17.8714 25.174C17.8714 30.0142 21.7889 33.9534 26.605 33.9534C31.4212 33.9534 35.3386 30.0142 35.3386 25.174C35.3386 24.6753 35.7434 24.2705 36.2421 24.2705C36.7408 24.2705 37.1456 24.6753 37.1456 25.174C37.1456 31.0117 32.4174 35.7603 26.605 35.7603Z" fill="#0B0D1E"/>
<path fill-rule="evenodd" clip-rule="evenodd" d="M31.4941 21.2049H29.0968C28.5981 21.2049 28.1934 20.8001 28.1934 20.3014C28.1934 19.8027 28.5981 19.3979 29.0968 19.3979H31.4941C31.9928 19.3979 32.3975 19.8027 32.3975 20.3014C32.3975 20.8001 31.9928 21.2049 31.4941 21.2049Z" fill="#0B0D1E"/>
<path fill-rule="evenodd" clip-rule="evenodd" d="M31.4956 25.2254H27.8937C27.395 25.2254 26.9902 24.8207 26.9902 24.3219C26.9902 23.8232 27.395 23.4185 27.8937 23.4185H31.4956C31.9943 23.4185 32.3991 23.8232 32.3991 24.3219C32.3991 24.8207 31.9943 25.2254 31.4956 25.2254Z" fill="#0B0D1E"/>
</svg>
