<svg width="53" height="53" viewBox="0 0 53 53" fill="none" xmlns="http://www.w3.org/2000/svg">
<rect width="52.625" height="52.0403" rx="17.5417" fill="#F25D5D"/>
<path fill-rule="evenodd" clip-rule="evenodd" d="M27.3803 16.2213L29.6646 20.7847C29.8885 21.2327 30.3206 21.5433 30.8217 21.6152L35.9317 22.3508C37.1942 22.533 37.6966 24.0632 36.7829 24.9399L33.0877 28.4906C32.7246 28.8397 32.5593 29.3416 32.6452 29.8345L33.5172 34.8473C33.732 36.0873 32.4122 37.0334 31.2837 36.4467L26.7165 34.0784C26.2688 33.846 25.7325 33.846 25.2835 34.0784L20.7163 36.4467C19.5878 37.0334 18.268 36.0873 18.4841 34.8473L19.3548 29.8345C19.4407 29.3416 19.2754 28.8397 18.9123 28.4906L15.2171 24.9399C14.3034 24.0632 14.8058 22.533 16.0683 22.3508L21.1783 21.6152C21.6794 21.5433 22.1128 21.2327 22.3367 20.7847L24.6197 16.2213C25.1846 15.0929 26.8154 15.0929 27.3803 16.2213Z" stroke="black" stroke-width="1.5" stroke-linecap="round" stroke-linejoin="round"/>
</svg>
